<svg width="24" height="22" viewBox="0 0 24 22" fill="none" xmlns="http://www.w3.org/2000/svg">
<path fill-rule="evenodd" clip-rule="evenodd" d="M23.2256 0.162332C23.7798 0.697024 22.7084 2.72295 22.3298 3.20879C21.1497 4.72334 19.3398 6.21724 17.8542 7.72172C18.033 8.42017 18.3399 9.24237 18.5186 9.94107C18.6497 9.83193 18.812 9.65683 18.9661 9.53797C19.6957 8.97619 20.89 9.88482 20.0857 10.7031C19.7197 11.0756 19.3532 11.4478 18.9869 11.8201C19.6023 14.3395 20.6945 17.4405 21.3099 19.9599C21.2873 20.1482 20.6931 20.8301 19.9885 21.3764C18.1881 18.3468 15.9091 14.4907 14.1088 11.461C12.1096 13.2769 10.6768 14.9615 7.90233 16.792C8.1686 18.0935 8.69097 19.6422 8.95723 20.9437C8.97149 21.117 8.52757 21.6339 8.03792 21.9716C7.36954 20.8099 6.47483 19.4149 5.8068 18.2533C5.80431 18.2491 5.42848 18.4801 4.95149 18.6387C3.58424 19.0932 3.65956 18.9649 4.07291 17.802C4.23747 17.3382 4.47922 16.9705 4.47494 16.9682C3.27091 16.3237 1.82495 15.4603 0.621094 14.8157C0.970884 14.3431 1.50671 13.9148 1.68642 13.9286C3.03531 14.1855 4.64057 14.6895 5.98954 14.9465C7.88673 12.2698 9.63274 10.8872 11.5148 8.95847C8.3746 7.22135 4.50382 4.90085 1.36373 3.16381C1.93004 2.48395 2.51062 2.03234 2.70593 2.01058C5.31714 2.60436 8.53131 3.65825 11.1426 4.25194C11.5286 3.89855 11.9144 3.54482 12.3005 3.19168C13.1486 2.41575 14.0903 3.56795 13.5079 4.27182C13.3848 4.42069 13.2033 4.57731 13.0903 4.70356C13.8143 4.87609 14.6665 5.17229 15.3906 5.34472C16.9498 3.91137 18.498 2.16495 20.0679 1.02642C20.5714 0.661244 22.6396 -0.403063 23.2256 0.162332Z" fill="#0271BD"/>
</svg>
