<svg width="21" height="21" viewBox="0 0 21 21" fill="none" xmlns="http://www.w3.org/2000/svg">
<path fill-rule="evenodd" clip-rule="evenodd" d="M9.66046 17.1847C9.63503 14.064 9.23574 12.1218 8.29678 9.01648C8.11472 8.41424 7.06239 5.46551 6.70727 5.05813C6.18438 5.54034 5.53366 6.8684 5.28058 7.61234C5.2212 7.78685 5.04785 8.50956 4.99013 8.59944C4.85495 8.34461 4.89816 8.03157 4.86955 7.74101C4.65157 8.06813 4.43666 8.74277 4.34893 9.20571C4.16278 10.1876 4.33654 10.3541 4.29867 11.0547C3.04388 9.85811 2.82554 7.65156 4.11116 6.1908C4.30471 5.97089 4.45464 5.81638 4.71433 5.63532L5.41354 5.2003C5.10334 5.24308 4.34435 5.61113 4.07857 5.75491C3.6821 5.96943 3.23682 6.29384 2.93372 6.45092C3.006 6.1167 3.2811 5.96812 3.40026 5.74224C2.69097 5.90257 1.7016 6.68462 1.2468 7.20276C1.14789 7.31541 0.818551 7.80404 0.712986 7.83366C0.698481 5.98512 1.85264 4.59665 3.49273 4.16823C4.31443 3.95362 4.64231 4.06408 5.42145 4.13755C5.14162 3.96391 4.6411 3.87267 4.25006 3.79523C4.01818 3.74929 3.83364 3.71938 3.59894 3.68952C3.42624 3.66757 3.22106 3.67694 3.05244 3.62761L2.99381 3.6027C2.98857 3.59022 2.97387 3.59401 2.9649 3.58799C3.10325 3.54851 3.20928 3.49762 3.3715 3.45888C3.50391 3.42722 3.64966 3.41896 3.79587 3.389C3.21436 3.24751 2.85808 3.132 2.1778 3.12015C1.47143 3.10781 1.11399 3.24183 0.509766 3.33467C0.695612 2.95569 1.4871 2.43905 1.99321 2.24113C2.65375 1.98286 3.4402 1.91056 4.18202 2.09654C7.19304 2.85134 6.50878 5.97191 6.78629 3.63674C7.06466 1.29341 9.76457 0.0130786 11.7829 1.10754C11.6767 1.15789 11.1411 1.24315 10.9725 1.29249C10.3818 1.46525 9.27487 1.94149 8.99394 2.40001C9.2726 2.34408 9.40265 2.29489 9.71859 2.29974C9.60476 2.43915 9.08484 2.69446 8.92055 2.80007C8.36024 3.1603 7.30036 4.01994 6.9947 4.57611C7.22784 4.31784 7.32162 4.18912 7.63751 3.94619C9.47386 2.53364 11.9575 2.96807 13.2349 4.80525C13.3687 4.99767 13.6167 5.45959 13.6642 5.73189C13.5216 5.66892 13.442 5.59283 13.3072 5.50519C12.4557 4.95121 11.5025 4.60646 10.4414 4.5663L10.4906 4.61423C10.4981 4.62068 10.5068 4.62898 10.5152 4.63559L10.6361 4.71104C10.6925 4.7428 10.7388 4.76747 10.7988 4.81049C10.9353 4.90857 11.0219 4.95742 11.0934 5.09867C10.0488 4.91955 9.71516 4.67021 8.42954 4.68065L8.68122 4.7599C8.76231 4.77364 8.83901 4.78709 8.90892 4.8036C9.3265 4.90241 9.74805 5.08206 10.0965 5.30236C11.0647 5.91451 11.687 6.90137 11.7698 8.07182C11.8056 8.57739 11.6807 9.5742 11.4132 9.88695C11.314 9.59503 11.2702 9.3202 11.1541 9.0076C10.9321 8.40977 10.3017 7.24908 9.77474 6.9492C9.85885 7.26627 9.93772 7.3762 9.94809 7.75426C9.7766 7.64292 9.45024 7.07574 9.31128 6.90244C8.77515 6.23397 8.17264 5.64274 7.45317 5.13834C7.2777 5.02069 7.21716 5.0069 7.04733 4.89954C7.16156 5.10178 7.2712 5.22108 7.42436 5.42376C9.45397 8.10994 11.1868 13.8557 11.8611 17.126C14.1025 17.195 19.5554 19.2985 20.4209 20.9388L2.05294 20.8878C3.23541 19.0485 6.46949 17.3627 9.66046 17.1847Z" fill="white"/>
</svg>
