<svg width="40" height="13" viewBox="0 0 40 13" fill="none" xmlns="http://www.w3.org/2000/svg">
<path fill-rule="evenodd" clip-rule="evenodd" d="M38.4731 9.17311C38.4426 9.10017 38.2098 7.90186 38.2156 7.8777C38.2323 7.80861 38.5179 7.52378 38.5769 7.46203L38.8632 7.1698C38.941 7.10556 38.9011 7.13606 38.963 7.1032C39.0467 7.21104 39.1293 7.52751 39.1741 7.68518C39.247 7.94187 39.2083 8.09159 39.1138 8.31754C39.0309 8.51565 38.6963 9.09334 38.4731 9.17311ZM33.228 6.93745C33.2657 7.09947 33.4244 7.39928 33.4882 7.56795C33.6331 7.95132 33.5921 7.84745 33.944 8.03021C34.6884 8.42178 35.3334 8.78626 36.0595 9.20448C36.0524 8.80359 36.0016 8.35115 35.9096 7.99325C35.8488 7.7565 35.7766 7.76451 35.5925 7.67884C35.183 7.4883 33.4963 6.83507 33.228 6.93745ZM0.00195312 8.74284C0.166753 8.8605 1.21445 8.47266 1.3691 8.42029C2.58124 8.00965 4.15197 7.61448 5.41836 7.20291C7.01295 6.68467 9.18973 6.06598 10.7877 5.58483C12.5653 5.04957 14.3284 4.51791 16.1526 3.96569C17.0388 3.69744 17.9761 3.4533 18.8345 3.15945C20.4801 2.59611 22.5238 2.10502 24.1974 1.54355C26.0638 0.917398 27.9335 1.65207 29.4323 2.84094C29.6797 3.03725 30.1549 3.42285 30.3817 3.6716L30.8036 4.11578C31.9935 5.49779 33.0987 7.53819 33.5084 9.34469C33.7912 10.5912 33.6985 11.3968 32.3501 11.4327C31.1927 11.4635 30.0925 11.5042 28.9313 11.5142L29.1309 12.0083C31.988 12.0161 34.9483 11.9381 37.778 11.7821C39.5873 11.6824 40.096 11.4821 39.8604 9.42818C39.7036 8.06003 39.3679 7.01051 38.8612 5.91377C38.5984 5.34503 38.3177 4.86034 38.0376 4.44454C35.8506 1.19876 30.9667 -0.423795 27.0413 0.0953119C25.8463 0.253355 24.66 0.766499 23.5613 1.08954C21.8826 1.58318 20.1756 2.20256 18.4878 2.71626L15.1275 3.79206C14.5913 3.97762 13.9745 4.16281 13.4443 4.33005C11.2412 5.02497 8.85813 5.82854 6.68505 6.48836C6.08928 6.66926 5.5483 6.84961 4.96377 7.03461C4.11373 7.30367 2.34129 7.92777 1.61757 8.12122C1.33123 8.19782 1.04814 8.30691 0.773096 8.3891C0.492368 8.47303 0.0469589 8.56572 0.00195312 8.74284Z" fill="#0271BD"/>
<path fill-rule="evenodd" clip-rule="evenodd" d="M18.8537 10.7465L19.072 11.5565L14.5424 11.6569L14.4481 10.9678L18.8537 10.7465ZM4.14483 11.9487L4.30238 12.3161C4.72598 12.4157 14.9706 12.1777 15.7325 12.1683C15.7325 12.1683 23.3881 12.1468 27.1384 11.9901C27.1381 11.6819 25.7381 9.15086 25.3451 9.17801L0.910564 11.8492C0.910564 11.8492 0.296676 11.888 0 11.9618L0.00458978 12.119L4.14483 11.9487Z" fill="#0271BD"/>
<path fill-rule="evenodd" clip-rule="evenodd" d="M25.6328 4.58375C25.7671 4.6816 28.2217 5.62029 28.5696 5.74839L31.5252 6.91762L31.2761 6.40622C30.6669 5.33297 30.0754 4.64215 29.1815 3.81528C28.4685 3.15584 26.6127 1.8731 25.6328 2.08855V4.58375Z" fill="#0271BD"/>
<path fill-rule="evenodd" clip-rule="evenodd" d="M20.1457 4.54005C20.1457 4.54005 22.7665 3.86246 23.4285 3.84351C22.8734 4.07934 20.9078 4.54477 20.1406 4.77003L20.1464 5.70835L24.7514 4.65417V2.20264C24.3904 2.27812 23.8939 2.43852 23.5559 2.54929C23.0273 2.72249 20.1457 3.56601 20.1457 3.56601V4.54005Z" fill="#0271BD"/>
<path fill-rule="evenodd" clip-rule="evenodd" d="M12.2425 6.49804C12.4381 6.49686 15.3651 5.70776 15.9091 5.60004L18.655 4.9127C18.8776 4.85201 19.3806 4.77876 19.5936 4.67054L19.5975 3.72607L13.1128 5.63135C12.8682 5.69819 12.4927 5.80343 12.2383 5.9042L12.2425 6.49804Z" fill="#0271BD"/>
<path fill-rule="evenodd" clip-rule="evenodd" d="M12.2375 7.51397C12.5123 7.53366 14.4574 7.01672 14.9973 6.90012L19.5931 5.86153L19.6021 4.93408C19.1251 5.01789 12.3812 6.91266 12.2363 6.98398L12.2375 7.51397Z" fill="#0271BD"/>
<path fill-rule="evenodd" clip-rule="evenodd" d="M8.77539 8.30975C9.20074 8.24203 11.2561 7.77654 11.7843 7.61402V7.08398L8.77539 7.90209V8.30975Z" fill="#0271BD"/>
<path fill-rule="evenodd" clip-rule="evenodd" d="M11.7833 6.63393V6.03369L9.84766 6.64388V7.12434L11.7833 6.63393Z" fill="#0271BD"/>
</svg>
