<svg width="24" height="24" viewBox="0 0 24 24" fill="none" xmlns="http://www.w3.org/2000/svg">
  <path d="M12 4H5C3.34 4 2 5.34 2 7V15C2 16.66 3.34 18 5 18L4 19V20H5L7 18H17L19 20H20V19L19 18C20.66 18 22 16.66 22 15V7C22 5.34 20.66 4 19 4H12ZM5 9.5C5 8.67 5.67 8 6.5 8C7.33 8 8 8.67 8 9.5C8 10.33 7.33 11 6.5 11C5.67 11 5 10.33 5 9.5ZM8.5 16H5.5C4.67 16 4 15.33 4 14.5C4 13.67 4.67 13 5.5 13H8.5C9.33 13 10 13.67 10 14.5C10 15.33 9.33 16 8.5 16ZM14 11H10V9H14V11ZM15.5 16H12.5C11.67 16 11 15.33 11 14.5C11 13.67 11.67 13 12.5 13H15.5C16.33 13 17 13.67 17 14.5C17 15.33 16.33 16 15.5 16ZM19 9.5C19 10.33 18.33 11 17.5 11C16.67 11 16 10.33 16 9.5C16 8.67 16.67 8 17.5 8C18.33 8 19 8.67 19 9.5Z" fill="currentColor"/>
</svg> 