<svg width="22" height="22" viewBox="0 0 22 22" fill="none" xmlns="http://www.w3.org/2000/svg">
<path d="M21.9999 5.86486C22.0008 5.0646 21.9229 4.27626 21.7331 3.49898C21.6369 3.10503 21.5002 2.7258 21.3147 2.36515C20.8815 1.5227 20.2202 0.92679 19.3501 0.558999C18.8258 0.337582 18.2784 0.207048 17.7163 0.125208C17.2517 0.0574483 16.7851 0.00679945 16.3177 0.00572389C13.147 -0.00204943 9.97612 0.00117724 6.80544 0.000101685C6.07382 -0.000338314 5.34283 -0.00273391 4.6136 0.0823327C3.96294 0.15811 3.32587 0.282973 2.71765 0.530595C1.93753 0.848128 1.3031 1.34469 0.856105 2.06702C0.53554 2.58481 0.338763 3.14933 0.212141 3.74284C0.0671363 4.42229 0.00108744 5.10781 0.00152744 5.80199C0.003483 9.18197 0.00392299 12.562 1.1881e-05 15.942C-0.000623674 16.577 0.0240164 17.2085 0.12771 17.8366C0.213216 18.354 0.335927 18.8589 0.539843 19.3429C1.02101 20.4854 1.87368 21.2187 3.03909 21.6038C3.40835 21.7259 3.7865 21.8116 4.1716 21.8733C4.5348 21.9315 4.89975 21.9874 5.26515 21.9893C7.17714 21.9986 9.08889 21.9937 11.0006 21.9937V21.9967C12.66 21.9967 14.3194 21.9939 15.9786 21.9982C16.6028 21.9999 17.2228 21.9738 17.8403 21.871C18.379 21.7809 18.904 21.6504 19.4046 21.4311C20.3683 21.009 21.0519 20.3097 21.4606 19.3412C21.666 18.854 21.7946 18.3464 21.874 17.8239C21.9541 17.2957 22.0004 16.7667 22 16.2318C21.9969 12.7762 21.9954 9.32042 21.9999 5.86486Z" fill="url(#paint0_linear_2186_236)"/>
<path d="M5.33006 13.4724C5.33187 13.5943 5.29208 13.6419 5.16707 13.6394C4.79386 13.6316 4.84397 13.6722 4.84111 13.3153C4.8393 13.1041 4.83825 12.8929 4.84164 12.6817C4.84344 12.5779 4.79952 12.5303 4.69674 12.5305C4.37001 12.5316 4.04306 12.5318 3.7161 12.5303C3.60375 12.5298 3.56735 12.5857 3.56887 12.6923C3.57272 12.9594 3.56683 13.2268 3.57173 13.4942C3.57354 13.6008 3.53247 13.6402 3.42759 13.6384C3.01926 13.6314 3.08587 13.6868 3.08407 13.299C3.08045 12.5963 3.08302 11.8935 3.08302 11.1908C3.08302 11.0013 3.08325 10.9995 3.26665 11.0008C3.61507 11.0029 3.56677 10.9625 3.56986 11.3021C3.57167 11.5092 3.57371 11.7162 3.56881 11.9231C3.56625 12.0357 3.60317 12.0897 3.7238 12.0882C4.04638 12.0838 4.36896 12.0846 4.69155 12.088C4.80442 12.089 4.84315 12.0393 4.84187 11.9311C4.83802 11.6682 4.84391 11.4049 4.83901 11.1422C4.83697 11.0353 4.87646 10.9973 4.9821 10.9993C5.38839 11.0076 5.32382 10.9512 5.32767 11.3384C5.33076 11.6661 5.32819 11.9938 5.32819 12.3215C5.32825 12.705 5.32463 13.0889 5.33006 13.4724Z" fill="#289BEB"/>
<path d="M8.40605 11.9068H8.40035C8.40035 12.1545 8.40346 12.4022 8.39982 12.65C8.39306 13.1063 8.13 13.4902 7.67853 13.5823C7.24686 13.67 6.7925 13.7018 6.43864 13.3386C6.2638 13.1588 6.16959 12.9362 6.16489 12.6908C6.15472 12.1743 6.16307 11.6572 6.15919 11.1407C6.15843 11.0345 6.19898 10.9973 6.30465 10.9993C6.71681 11.0076 6.6471 10.9509 6.65098 11.3353C6.65516 11.741 6.65668 12.1468 6.65204 12.5523C6.64581 13.0652 7.13419 13.3176 7.58361 13.1252C7.87506 13.0003 7.92425 12.7339 7.92789 12.4602C7.93412 12.0162 7.9323 11.572 7.9263 11.1281C7.92525 11.0324 7.95181 10.9944 8.04884 10.9998C8.13523 11.0047 8.22215 11.0021 8.30878 11.0011C8.38683 11.0003 8.40975 11.0347 8.40816 11.1126C8.4027 11.3774 8.40605 11.642 8.40605 11.9068Z" fill="#289BEB"/>
<path d="M17.5861 13.5905C17.038 13.5854 16.4898 13.5862 15.9417 13.5903C15.831 13.5911 15.7901 13.5552 15.7914 13.4429C15.7963 13.0591 15.7934 12.6751 15.7934 12.2911C15.7932 11.9155 15.7968 11.5402 15.7911 11.1647C15.7893 11.0464 15.8217 10.998 15.9494 10.9993C16.4803 11.0049 17.0114 11.0036 17.5423 11C17.6511 10.9993 17.6966 11.0328 17.6945 11.1465C17.6885 11.4763 17.7194 11.4335 17.4051 11.4353C17.0839 11.4371 16.7627 11.4391 16.4417 11.4337C16.3181 11.4314 16.269 11.4782 16.2775 11.5991C16.2829 11.68 16.278 11.7611 16.2786 11.8423C16.2796 12.0143 16.2912 12.0266 16.459 12.0271C16.6818 12.0279 16.9045 12.0302 17.1271 12.0261C17.2301 12.0243 17.2831 12.0524 17.2589 12.1661C17.2502 12.2071 17.2553 12.2514 17.2566 12.2939C17.2618 12.4577 17.262 12.4582 17.1024 12.4587C16.8796 12.4594 16.6568 12.4628 16.4342 12.4574C16.3163 12.4546 16.2724 12.5035 16.2772 12.6174C16.2826 12.7408 16.2775 12.8647 16.2788 12.9886C16.2801 13.1515 16.3029 13.1755 16.4641 13.176C16.8282 13.1773 17.1921 13.1763 17.5562 13.1765C17.7415 13.1768 17.7433 13.1791 17.7441 13.3614C17.7441 13.3829 17.7421 13.4044 17.7443 13.4254C17.7583 13.5448 17.7123 13.5919 17.5861 13.5905Z" fill="#289BEB"/>
<path d="M18.8671 11.3469C18.871 12.0383 18.8686 12.73 18.8681 13.4215C18.8681 13.5833 18.8621 13.5887 18.716 13.5902C18.4383 13.5927 18.4383 13.5927 18.4385 13.294V12.2952H18.4319C18.4319 11.894 18.433 11.4927 18.4307 11.0915C18.4302 11.0323 18.4457 11.0021 18.5016 11.001C18.5094 11.0008 18.5173 11 18.5254 11C18.9367 11.0044 18.8651 10.9462 18.8671 11.3469Z" fill="#289BEB"/>
<path d="M11.4182 13.5056C11.0905 12.7637 10.7563 12.0242 10.4498 11.2735C10.3596 11.0523 10.2455 10.9788 10.0228 11.004C9.91898 11.0157 9.86347 11.0463 9.82208 11.1437C9.61799 11.6238 9.40718 12.1016 9.19792 12.5796C9.05782 12.8998 8.91616 13.2194 8.77687 13.5398C8.76352 13.5705 8.72287 13.6286 8.78279 13.6333C8.92214 13.6445 9.06375 13.6388 9.20385 13.6295C9.24704 13.6266 9.26092 13.5695 9.27787 13.53C9.32595 13.4194 9.37553 13.309 9.41902 13.1961C9.45682 13.0976 9.52365 13.0589 9.6267 13.0605C9.87503 13.0642 10.1234 13.0589 10.3714 13.0621C10.7707 13.0668 10.6977 13.0034 10.8578 13.3913C10.9771 13.6806 10.9578 13.6274 11.2074 13.6329C11.2501 13.6329 11.293 13.6308 11.3357 13.6331C11.4385 13.6394 11.464 13.609 11.4182 13.5056ZM10.4026 12.6428C10.2997 12.6446 10.1969 12.6433 10.0941 12.6433V12.6435C9.99562 12.6435 9.89715 12.6441 9.79874 12.6435C9.70543 12.6428 9.67199 12.5978 9.70903 12.5098C9.8147 12.2592 9.92188 12.0092 10.0294 11.7594C10.0427 11.7282 10.0574 11.6924 10.1003 11.6947C10.1401 11.6971 10.1576 11.7285 10.1718 11.7609C10.2784 12.0063 10.3854 12.2515 10.4916 12.4971C10.5306 12.5875 10.5049 12.641 10.4026 12.6428Z" fill="#289BEB"/>
<path d="M15.19 11.1292C14.9975 11.6755 14.8099 12.2233 14.6206 12.7706C14.5425 12.996 14.461 13.2203 14.3882 13.4473C14.356 13.5476 14.3034 13.5923 14.1948 13.589C13.8727 13.5796 13.9366 13.6254 13.8354 13.3325C13.6795 12.8821 13.5112 12.4358 13.3746 11.979C13.3646 11.9453 13.35 11.911 13.3089 11.9108C13.252 11.9105 13.2473 11.9614 13.2341 12C13.0696 12.4749 12.9015 12.9488 12.7449 13.4264C12.7045 13.5491 12.6463 13.5946 12.5175 13.5903C12.2728 13.5819 12.2743 13.588 12.1954 13.3619C11.9412 12.6345 11.6858 11.9074 11.4308 11.1803C11.4224 11.1563 11.4185 11.1302 11.4073 11.1074C11.3649 11.021 11.4079 11.0026 11.484 11.0057C11.535 11.0074 11.5861 11.0059 11.6373 11.0059C11.6712 11.0059 11.706 11.0105 11.7392 11.0051C11.8628 10.9854 11.9124 11.0535 11.9453 11.1601C12.1017 11.6642 12.2616 12.167 12.4205 12.6703C12.4322 12.7069 12.4427 12.7488 12.4907 12.7491C12.5387 12.7491 12.5492 12.7082 12.5615 12.6709C12.7316 12.1535 12.9038 11.6364 13.0713 11.1179C13.0961 11.0418 13.1329 11.0072 13.2146 11.0036C13.4964 10.9913 13.502 10.987 13.5929 11.2514C13.7536 11.7185 13.9064 12.188 14.0627 12.6563C14.0754 12.6944 14.0724 12.7517 14.1312 12.7482C14.1827 12.7448 14.1886 12.6944 14.2017 12.6535C14.3652 12.1423 14.5302 11.6318 14.6927 11.1205C14.7182 11.0397 14.7624 11.0001 14.8495 11.0052C14.9346 11.0098 15.0199 11.0083 15.105 11.0057C15.2003 11.0029 15.223 11.0353 15.19 11.1292Z" fill="#289BEB"/>
<path fill-rule="evenodd" clip-rule="evenodd" d="M6.69629 2.86982C6.69629 4.98307 8.40942 6.69619 10.5227 6.69619C12.6359 6.69619 14.3491 4.98306 14.3491 2.86981H13.6491C13.6491 4.59646 12.2493 5.99619 10.5227 5.99619C8.79602 5.99619 7.39629 4.59647 7.39629 2.86982H6.69629Z" fill="#289BEB"/>
<defs>
<linearGradient id="paint0_linear_2186_236" x1="11" y1="21.9985" x2="11" y2="5.76931e-05" gradientUnits="userSpaceOnUse">
<stop offset="0.5709" stop-color="#E1E1E1"/>
</linearGradient>
</defs>
</svg>
