<svg width="20" height="20" viewBox="0 0 20 20" fill="none" xmlns="http://www.w3.org/2000/svg">
<path fill-rule="evenodd" clip-rule="evenodd" d="M0.7888 4.63775C-0.560608 4.63775 0.16269 5.60903 0.477207 6.50813L1.38473 8.87347C1.72781 9.84133 2.30747 9.8311 3.12288 9.8311C4.61113 9.8311 6.9818 8.7028 8.34882 8.03691L9.93373 7.21212C9.92971 7.43017 9.82665 7.94028 9.7906 8.15584C9.73802 8.47175 9.68702 8.80099 9.63734 9.08747L8.87854 13.7555C8.85159 13.9287 8.82087 14.0767 8.811 14.244C8.80085 14.4125 8.8078 14.6426 8.98188 14.6373C9.10655 14.6333 9.28491 14.5119 9.39758 14.4468C9.92624 14.1418 10.0533 14.1325 10.5083 13.3384L13.5942 5.68799C13.9438 4.88955 13.748 5.24728 14.768 4.65262L15.699 4.13477C16.3716 3.7439 19.5382 1.98376 19.5382 1.30889C19.5382 0.970666 18.9331 0.501143 18.6458 0.346289C18.4098 0.219303 17.926 0.0588616 17.6582 0.0269529C16.2712 -0.136882 15.201 0.473575 14.0153 1.11624C13.8076 1.22868 13.6362 1.29991 13.4287 1.41233C12.3468 1.99863 10.8842 2.68403 9.88246 3.24649C9.4889 3.46733 9.11698 3.63363 8.72209 3.85353L4.61567 5.97015C3.09378 6.76303 3.57971 6.86122 1.39033 4.96077C1.23201 4.82326 1.04138 4.63775 0.7888 4.63775Z" fill="#2786C9"/>
<path fill-rule="evenodd" clip-rule="evenodd" d="M3.84961 1.48569C3.84961 1.78427 4.14518 1.89546 4.44608 2.12496L6.75506 3.75657C6.95826 3.89531 7.00071 3.7674 7.35369 3.59735L8.14826 3.18761C8.33649 3.082 9.60473 2.48609 9.70379 2.32906C8.62885 2.03854 6.19038 0.908691 5.26522 0.908691C4.91065 0.908691 4.74083 0.929148 4.41057 1.11559C4.29416 1.18125 3.84961 1.36584 3.84961 1.48569Z" fill="#2786C9"/>
<path fill-rule="evenodd" clip-rule="evenodd" d="M1.2834 18.055H19.1807C19.6315 18.055 19.9993 18.4192 19.9993 18.8657V19.1892C19.9993 19.6357 19.6315 19.9999 19.1807 19.9999H1.2834C0.832569 19.9999 0.464844 19.6357 0.464844 19.1892V18.8657C0.464844 18.4192 0.832569 18.055 1.2834 18.055Z" fill="#2786C9"/>
</svg>
