<svg width="16" height="16" viewBox="0 0 16 16" fill="none" xmlns="http://www.w3.org/2000/svg">
<path fill-rule="evenodd" clip-rule="evenodd" d="M1.14783 13.218V6.33246H14.8522V13.218C14.8522 14.1012 14.1008 14.8524 13.2174 14.8524H2.78261C1.90199 14.8524 1.14783 14.1019 1.14783 13.218ZM11.4877 0.415777L11.5011 1.49871H11.5478H13.287C14.7009 1.49871 16 2.73593 16 4.41982V13.0093C16 13.6521 15.8393 14.3005 15.4987 14.7685C15.4384 14.8514 15.3956 14.9094 15.3302 14.9826C14.9976 15.3545 14.7682 15.5505 14.2711 15.7668C13.9129 15.9227 13.5091 16 13.0087 16H2.9913C2.1656 16 1.38171 15.7285 0.826622 15.1736C0.273113 14.6202 0 13.8329 0 13.0093V4.45461C0 3.54555 0.313296 2.83169 0.773611 2.37648C1.27266 1.88294 1.93365 1.49871 2.71305 1.49871H4.45218H4.49661L4.4834 0.428156C4.48053 0.19647 4.6673 0.00519416 4.89904 0.00246071L5.10531 2.93821e-05C5.33687 -0.00269093 5.52798 0.183828 5.53085 0.415343L5.54421 1.49871H5.6H10.4H10.4535L10.4403 0.42859C10.4374 0.196904 10.6242 0.00562761 10.8559 0.00289416L11.0622 0.000463157C11.2938 -0.00225715 11.4849 0.184262 11.4877 0.415777ZM11.5152 2.64629L11.5281 3.6898C11.531 3.92148 11.3442 4.11274 11.1125 4.11548L10.9062 4.11791C10.6747 4.12064 10.4835 3.93411 10.4807 3.70259L10.4676 2.64629H10.4H5.6H5.55838L5.57125 3.68936C5.5741 3.92105 5.38735 4.11231 5.15561 4.11504L4.94935 4.11748C4.71777 4.12021 4.52667 3.93368 4.5238 3.70216L4.51078 2.64629H4.45218H2.67827C1.93131 2.64629 1.13469 3.38599 1.13469 4.28073L1.14783 5.21966H14.8522L14.8653 4.28073C14.8653 3.38391 14.0674 2.64629 13.3217 2.64629H11.5478H11.5152Z" fill="#F5F5F5"/>
<path fill-rule="evenodd" clip-rule="evenodd" d="M2.89051 7.5376H3.75116C3.96839 7.5376 4.14557 7.71474 4.14557 7.93193V8.7924C4.14557 9.00958 3.96839 9.18673 3.75116 9.18673H2.89051C2.67328 9.18673 2.49609 9.00958 2.49609 8.7924V7.93193C2.49609 7.71474 2.67328 7.5376 2.89051 7.5376Z" fill="#F5F5F5"/>
</svg>
