<svg width="18" height="15" viewBox="0 0 18 15" fill="none" xmlns="http://www.w3.org/2000/svg">
<path d="M6.75 5.04981e-07C6.05177 -0.000397841 5.37061 0.234884 4.8004 0.673421C4.23018 1.11196 3.79899 1.73216 3.56625 2.44855H0V3.82567H3.56625C3.79868 4.54253 4.22971 5.16328 4.79992 5.60236C5.37014 6.04144 6.05147 6.27723 6.75 6.27723C7.44853 6.27723 8.12986 6.04144 8.70008 5.60236C9.27029 5.16328 9.70132 4.54253 9.93375 3.82567H18V2.44855H9.93375C9.70101 1.73216 9.26981 1.11196 8.6996 0.673421C8.12939 0.234884 7.44823 -0.000397841 6.75 5.04981e-07ZM11.25 8.72278C10.5518 8.72238 9.87061 8.95766 9.3004 9.3962C8.73019 9.83473 8.29899 10.4549 8.06625 11.1713H0V12.5484H8.06625C8.29868 13.2653 8.72971 13.8861 9.29992 14.3251C9.87014 14.7642 10.5515 15 11.25 15C11.9485 15 12.6299 14.7642 13.2001 14.3251C13.7703 13.8861 14.2013 13.2653 14.4338 12.5484H18V11.1713H14.4338C14.201 10.4549 13.7698 9.83473 13.1996 9.3962C12.6294 8.95766 11.9482 8.72238 11.25 8.72278Z" fill="#2786C9"/>
</svg>
