<svg width="15" height="22" viewBox="0 0 15 22" fill="none" xmlns="http://www.w3.org/2000/svg">
<g clip-path="url(#clip0_1158_174)">
<path d="M6.81081 5.44871C6.81081 7.94914 5.35806 8.81794 3.57264 8.81794C1.78722 8.81794 0 7.94914 0 5.44871C0 2.94828 1.76122 0 3.54664 0C5.33206 0 6.81081 2.94828 6.81081 5.44871Z" fill="#2786C9"/>
<path d="M2.54763 7.75924C2.56001 7.2646 2.95977 6.87012 3.44869 6.87012C3.9376 6.87012 4.33737 7.2646 4.34974 7.75924L4.67236 20.6563C4.68977 21.3525 4.13685 21.9265 3.44869 21.9265C2.76052 21.9265 2.2076 21.3525 2.22501 20.6563L2.54763 7.75924Z" fill="#2786C9"/>
<path d="M11.697 7.7629C11.7088 7.2807 12.0984 6.896 12.5751 6.896C13.0517 6.896 13.4413 7.2807 13.4531 7.7629L13.7689 20.7139C13.7855 21.3928 13.2461 21.9523 12.5751 21.9523C11.904 21.9523 11.3646 21.3928 11.3812 20.7139L11.697 7.7629Z" fill="#2786C9"/>
<path fill-rule="evenodd" clip-rule="evenodd" d="M12.2717 5.211C12.2717 5.39567 12.4133 5.54689 12.5926 5.55955V5.56911C12.7719 5.55644 12.9134 5.40523 12.9134 5.22056V0.694469C12.9134 0.490139 13.0771 0.324495 13.279 0.324495C13.4809 0.324495 13.6446 0.490138 13.6446 0.694469V5.29218C13.6446 5.48516 13.7992 5.64159 13.9898 5.64159C14.1805 5.64159 14.3351 5.48516 14.3351 5.29218V0.641989C14.3351 0.466642 14.4755 0.324495 14.6488 0.324495C14.822 0.324495 14.9625 0.466642 14.9625 0.641989V6.94704C14.9625 7.99962 14.1194 8.85295 13.0793 8.85295H12.5926V8.84337H12.1058C11.0658 8.84337 10.2227 7.99007 10.2227 6.93748V0.632436C10.2227 0.457089 10.3631 0.314941 10.5364 0.314941C10.7096 0.314941 10.8501 0.457089 10.8501 0.632436V5.28263C10.8501 5.4756 11.0047 5.63204 11.1953 5.63204C11.386 5.63204 11.5406 5.4756 11.5406 5.28263V0.684916C11.5406 0.480585 11.7043 0.314941 11.9062 0.314941C12.1081 0.314941 12.2717 0.480585 12.2717 0.684916V5.211Z" fill="#2786C9"/>
</g>
<defs>
<clipPath id="clip0_1158_174">
<rect width="15" height="22" fill="white"/>
</clipPath>
</defs>
</svg>
