<svg width="22" height="25" viewBox="0 0 22 25" fill="none" xmlns="http://www.w3.org/2000/svg">
<path fill-rule="evenodd" clip-rule="evenodd" d="M0.256348 0.260376C0.0991211 0.433472 0 0.664795 0 0.930298V23.4469C0 23.5237 0.00830078 23.5975 0.0238037 23.6681C0.0384521 23.7343 0.0595703 23.7974 0.0863037 23.8571L11.53 12.1123L0.256348 0.260376ZM12.2285 11.3955L1.40283 0.0146484C1.43555 0.0291748 1.4679 0.0456543 1.5 0.064209L15.4319 8.10779L12.2285 11.3955ZM12.2197 12.8373L0.9104 24.4442C1.10498 24.4623 1.30933 24.4231 1.5 24.313L15.4658 16.2498L12.2197 12.8373ZM16.3567 15.7354L12.9182 12.1206L16.3254 8.62366L21 11.3225C21.6666 11.7074 21.6666 12.6697 21 13.0546L16.3567 15.7354Z" fill="#D9D9D9"/>
</svg>
