<svg width="42" height="42" viewBox="0 0 42 42" fill="none" xmlns="http://www.w3.org/2000/svg">
<circle cx="21" cy="21" r="21" fill="#F5F5F5"/>
<path d="M27.435 20.9999C27.436 22.514 26.9027 23.9799 25.9289 25.1393C24.9551 26.2987 23.6034 27.0772 22.1119 27.3378C20.6204 27.5983 19.0849 27.3241 17.7757 26.5635C16.4665 25.8029 15.4678 24.6047 14.9554 23.1799L11.2754 26.1239C12.4197 28.2991 14.2598 30.0282 16.5019 31.0351C18.7441 32.0419 21.2589 32.2685 23.6449 31.6786C26.0309 31.0887 28.1504 29.7164 29.6651 27.7808C31.1798 25.8451 32.0022 23.4578 32.001 20.9999" fill="#00AC47"/>
<path d="M27.4328 20.9999C27.432 22.0236 27.1866 23.0322 26.717 23.9417C26.2475 24.8513 25.5674 25.6355 24.7334 26.229L28.3716 29.1396C29.5124 28.1124 30.4248 26.8571 31.0497 25.455C31.6745 24.0528 31.9979 22.535 31.9988 20.9999" fill="#4285F4"/>
<path d="M14.566 21C14.5676 20.2562 14.699 19.5185 14.9543 18.82L11.2743 15.876C10.4375 17.4543 10 19.2135 10 21C10 22.7864 10.4375 24.5456 11.2743 26.1239L14.9543 23.1799C14.699 22.4814 14.5676 21.7437 14.566 21Z" fill="#FFBA00"/>
<path d="M21.0011 14.566C22.3625 14.5664 23.6882 15.0015 24.7851 15.8078L28.1556 12.662C26.9044 11.5832 25.4258 10.8009 23.83 10.3735C22.2342 9.94612 20.5624 9.88462 18.9396 10.1936C17.3167 10.5026 15.7845 11.1741 14.4574 12.158C13.1304 13.142 12.0426 14.4129 11.2754 15.876L14.9554 18.82C15.4042 17.5758 16.2253 16.5001 17.307 15.739C18.3887 14.9779 19.6785 14.5683 21.0011 14.566Z" fill="#EA4435"/>
<path d="M31.9999 20.1698V21L30.132 23.9056H21.415V19.3396H31.1697C31.3899 19.3396 31.6011 19.4271 31.7567 19.5828C31.9124 19.7384 31.9999 19.9496 31.9999 20.1698Z" fill="#4285F4"/>
</svg>
