<svg width="46" height="24" viewBox="0 0 46 24" fill="none" xmlns="http://www.w3.org/2000/svg">
<path fill-rule="evenodd" clip-rule="evenodd" d="M10 5.15001C9.46163 5.15002 8.93766 5.32442 8.50601 5.64727C8.07436 5.97011 7.7581 6.42415 7.60429 6.94184H12.3957C12.2419 6.42415 11.9256 5.97011 11.494 5.64727C11.0623 5.32442 10.5384 5.15002 10 5.15001ZM6.71714 4.36446C6.0282 5.05566 5.5734 5.94682 5.41714 6.91174L5.42286 7.00922L5.42 21.9933C5.42 22.0162 5.42191 21.9713 5.42 21.9933H15L14.9809 21.3182L14.5829 6.91174C14.4458 6.06523 14.0786 5.27311 13.5216 4.62264C12.9646 3.97216 12.2394 3.48859 11.4261 3.22518C10.6127 2.96178 9.74268 2.92877 8.91181 3.12979C8.08095 3.33081 7.3215 3.75806 6.71714 4.36446ZM14.5829 6.91174L15 21.9933H16.4286C16.8976 21.9933 17.362 21.9006 17.7953 21.7205C18.2286 21.5404 18.6223 21.2764 18.954 20.9436C19.2856 20.6109 19.5487 20.2158 19.7281 19.781C19.9076 19.3462 20 18.8802 20 18.4096V10.5255C20 9.57507 19.6237 8.66355 18.954 7.99148C18.2842 7.31941 17.3758 6.94184 16.4286 6.94184L14.5829 6.91174ZM3.57143 6.94184L5.42286 7.00922L5.42 21.9933H3.57143C3.10242 21.9933 2.63801 21.9006 2.2047 21.7205C1.7714 21.5404 1.37769 21.2764 1.04605 20.9436C0.714409 20.6109 0.45134 20.2158 0.271859 19.781C0.0923777 19.3462 0 18.8802 0 18.4096L0 10.5255C0 9.57507 0.376274 8.66355 1.04605 7.99148C1.71582 7.31941 2.62423 6.94184 3.57143 6.94184Z" fill="#2786C9"/>
<path d="M7.27344 10.4202V18.9983H6.18945V11.7737L4.00391 12.5706V11.592L7.10352 10.4202H7.27344ZM15.8164 14.053V15.3538C15.8164 16.053 15.7539 16.6428 15.6289 17.1233C15.5039 17.6038 15.3242 17.9905 15.0898 18.2834C14.8555 18.5764 14.5723 18.7893 14.2402 18.9221C13.9121 19.051 13.541 19.1155 13.127 19.1155C12.7988 19.1155 12.4961 19.0745 12.2188 18.9924C11.9414 18.9104 11.6914 18.7795 11.4688 18.5999C11.25 18.4163 11.0625 18.178 10.9062 17.885C10.75 17.592 10.6309 17.2366 10.5488 16.8186C10.4668 16.4006 10.4258 15.9124 10.4258 15.3538V14.053C10.4258 13.3538 10.4883 12.7678 10.6133 12.2952C10.7422 11.8225 10.9238 11.4436 11.1582 11.1584C11.3926 10.8694 11.6738 10.6624 12.002 10.5374C12.334 10.4124 12.7051 10.3499 13.1152 10.3499C13.4473 10.3499 13.752 10.3909 14.0293 10.4729C14.3105 10.551 14.5605 10.678 14.7793 10.8538C14.998 11.0256 15.1836 11.2561 15.3359 11.5452C15.4922 11.8303 15.6113 12.1799 15.6934 12.594C15.7754 13.0081 15.8164 13.4944 15.8164 14.053ZM14.7266 15.5295V13.8713C14.7266 13.4885 14.7031 13.1526 14.6562 12.8635C14.6133 12.5706 14.5488 12.3206 14.4629 12.1135C14.377 11.9065 14.2676 11.7385 14.1348 11.6096C14.0059 11.4807 13.8555 11.387 13.6836 11.3284C13.5156 11.2659 13.3262 11.2346 13.1152 11.2346C12.8574 11.2346 12.6289 11.2834 12.4297 11.3811C12.2305 11.4749 12.0625 11.6252 11.9258 11.8323C11.793 12.0393 11.6914 12.3108 11.6211 12.6467C11.5508 12.9827 11.5156 13.3909 11.5156 13.8713V15.5295C11.5156 15.9124 11.5371 16.2502 11.5801 16.5432C11.627 16.8362 11.6953 17.0901 11.7852 17.3049C11.875 17.5159 11.9844 17.6897 12.1133 17.8264C12.2422 17.9631 12.3906 18.0647 12.5586 18.1311C12.7305 18.1936 12.9199 18.2249 13.127 18.2249C13.3926 18.2249 13.625 18.1741 13.8242 18.0725C14.0234 17.9709 14.1895 17.8127 14.3223 17.5979C14.459 17.3792 14.5605 17.0999 14.627 16.76C14.6934 16.4163 14.7266 16.0061 14.7266 15.5295Z" fill="#F5F5F5"/>
<path d="M34.8 0.749799C34.8 0.550952 34.8843 0.360248 35.0343 0.219641C35.1843 0.0790353 35.3878 4.29155e-05 35.6 4.29155e-05H40.4C40.6122 4.29155e-05 40.8157 0.0790353 40.9657 0.219641C41.1157 0.360248 41.2 0.550952 41.2 0.749799V4.49858H43.6C44.2365 4.49858 44.847 4.73556 45.2971 5.15738C45.7471 5.57919 46 6.15131 46 6.74785V20.2435C46.0001 20.7098 45.8456 21.1646 45.5578 21.545C45.27 21.9254 44.8632 22.2126 44.3936 22.3668C44.4129 22.5688 44.3883 22.7725 44.3212 22.9654C44.254 23.1583 44.1459 23.3364 44.0032 23.489C43.8605 23.6415 43.6862 23.7654 43.491 23.853C43.2957 23.9406 43.0835 23.9902 42.8673 23.9987C42.651 24.0072 42.4351 23.9746 42.2327 23.9026C42.0303 23.8307 41.8455 23.721 41.6896 23.5802C41.5338 23.4394 41.41 23.2704 41.3259 23.0835C41.2417 22.8966 41.1989 22.6956 41.2 22.4927H34.8C34.7985 22.6941 34.7538 22.8931 34.6685 23.0779C34.5831 23.2627 34.459 23.4295 34.3034 23.5683C34.1478 23.7072 33.964 23.8152 33.7628 23.8861C33.5617 23.9569 33.3475 23.989 33.1328 23.9806C32.9181 23.9721 32.7075 23.9232 32.5134 23.8368C32.3194 23.7504 32.1459 23.6282 32.0033 23.4776C31.8607 23.327 31.7519 23.1511 31.6834 22.9602C31.615 22.7693 31.5882 22.5675 31.6048 22.3668C31.1355 22.2123 30.729 21.925 30.4415 21.5447C30.154 21.1643 29.9998 20.7096 30 20.2435V6.74785C30 6.15131 30.2529 5.57919 30.7029 5.15738C31.153 4.73556 31.7635 4.49858 32.4 4.49858H34.8V0.749799ZM39.6 1.49956H36.4V4.49858H39.6V1.49956Z" fill="#2786C9"/>
<rect width="12.8543" height="1.28543" rx="0.642715" transform="matrix(0.707125 0.707088 -0.707125 0.707088 33.9082 8)" fill="#F5F5F5"/>
<rect width="12.8543" height="1.28543" rx="0.642715" transform="matrix(-0.707125 0.707088 0.707125 0.707088 42.0918 8)" fill="#F5F5F5"/>
</svg>
