<svg width="20" height="19" viewBox="0 0 20 19" fill="none" xmlns="http://www.w3.org/2000/svg">
<path d="M17.1864 15.8982C17.1883 17.6532 15.7073 19.0673 13.9101 18.9887C13.5404 18.9727 13.1861 18.8919 12.859 18.7579C12.0082 18.4093 11.1027 18.2085 10.1815 18.2094H9.93345C8.98474 18.2102 8.04693 18.4 7.17186 18.7613C6.75831 18.9323 6.29933 19.0179 5.8176 18.9969C4.21179 18.9261 2.90684 17.6417 2.83162 16.0582C2.78231 15.0141 3.25827 14.077 4.02165 13.4824C5.11856 12.6283 5.88481 11.4259 6.24649 10.0946C6.66581 8.54791 7.66251 6.91702 9.99813 6.91478C12.3091 6.91225 13.3096 8.54845 13.7392 10.0971C14.1108 11.4393 14.9177 12.6205 16.0165 13.4928C16.7293 14.0585 17.1854 14.9254 17.1864 15.8982Z" fill="#2786C9"/>
<path d="M4.78613 9.11167C4.78772 10.6943 3.71771 11.9784 2.39581 11.9798C1.07419 11.9809 0.00163085 10.699 1.7412e-06 9.11645C-0.00157537 7.53358 1.06842 6.24942 2.39002 6.24829C3.71163 6.24691 4.7845 7.52881 4.78613 9.11167Z" fill="#2786C9"/>
<path d="M9.28023 2.86985C9.28183 4.45243 8.21182 5.73657 6.89021 5.73797C5.56864 5.73939 4.49605 4.4572 4.49414 2.87432C4.49255 1.29201 5.56254 0.00759895 6.88446 0.00647087C8.20606 0.00506933 9.27864 1.28697 9.28023 2.86985Z" fill="#2786C9"/>
<path d="M19.999 9.09635C20.0006 10.6789 18.9306 11.9631 17.609 11.9645C16.2871 11.9659 15.2145 10.6837 15.2129 9.10141C15.2113 7.51853 16.2813 6.2341 17.6029 6.23297C18.9245 6.23157 19.9974 7.51347 19.999 9.09635Z" fill="#2786C9"/>
<path d="M15.4892 2.86338C15.4908 4.44623 14.4208 5.73039 13.0989 5.73179C11.7773 5.7332 10.7047 4.45129 10.7031 2.86842C10.7015 1.28583 11.7716 0.00169285 13.0931 7.43958e-07C14.4147 -0.00112733 15.4876 1.28077 15.4892 2.86338Z" fill="#2786C9"/>
</svg>
