<svg width="20" height="19" viewBox="0 0 20 19" fill="none" xmlns="http://www.w3.org/2000/svg">
<path d="M19.9977 16.0601C19.8637 16.6092 19.5477 17.1025 19.0966 17.4669C18.593 17.9554 17.9918 18.3427 17.3287 18.606C16.6655 18.8693 15.9538 19.0033 15.2355 18.9999H14.8763C13.3853 18.9258 11.9239 18.5741 10.5746 17.9645C10.2475 17.8181 9.92946 17.6812 9.55117 17.5147C7.96985 16.6629 6.51845 15.6084 5.23752 14.3806C3.57241 12.8912 2.20793 11.1231 1.21184 9.16407C0.663455 8.09535 0.294067 6.95128 0.117119 5.77348C-0.130095 4.54615 0.0160623 3.27625 0.536544 2.12929C0.860306 1.60858 1.25658 1.13213 1.71455 0.712952C1.92373 0.495314 2.17669 0.320037 2.45836 0.197554C2.74003 0.0750716 3.04466 0.00788726 3.35412 0C3.69155 0.0340177 4.01847 0.131956 4.3157 0.288072C4.61292 0.444187 4.87447 0.655336 5.085 0.909134C5.5566 1.40676 6.10848 1.88526 6.61018 2.39246L7.25638 2.99918C7.63767 3.31786 7.87347 3.76669 7.9116 4.249C7.9126 4.69304 7.74102 5.12082 7.42996 5.45098C7.23409 5.68249 7.02577 5.90417 6.80584 6.11512L6.59011 6.33044C6.46447 6.44179 6.36644 6.57844 6.30314 6.73046C6.25096 6.87784 6.2329 7.03478 6.25297 7.18981C6.41753 7.61471 6.6754 8.00134 7.01054 8.32288C7.53231 8.9966 8.03402 9.58323 8.59793 10.277C9.57051 11.3472 10.7235 12.2551 12.0095 12.9633C12.1329 13.059 12.2804 13.1231 12.439 13.1489C12.5795 13.169 12.7209 13.1489 12.8484 13.0896C13.2391 12.8901 13.5867 12.6219 13.8729 12.2991C14.2341 11.8742 14.7579 11.6044 15.3278 11.546C15.6014 11.547 15.872 11.6002 16.1236 11.7026C16.3752 11.805 16.6028 11.9545 16.7928 12.1422C17.0269 12.3349 17.2487 12.54 17.458 12.7575L17.7651 13.0705L18.0832 13.3633C18.2768 13.549 18.4614 13.7155 18.6451 13.9107C18.9795 14.185 19.2906 14.4814 19.5782 14.7997C19.8722 15.1577 20.0207 15.6055 19.9977 16.0601Z" fill="#287DC4"/>
</svg>
