<svg width="23" height="18" viewBox="0 0 23 18" fill="none" xmlns="http://www.w3.org/2000/svg">
<path fill-rule="evenodd" clip-rule="evenodd" d="M2.3 0C1.69 0 1.10499 0.237053 0.673654 0.65901C0.242321 1.08097 0 1.65326 0 2.25V15.75C0 16.3467 0.242321 16.919 0.673654 17.341C1.10499 17.7629 1.69 18 2.3 18H20.7C21.31 18 21.895 17.7629 22.3263 17.341C22.7577 16.919 23 16.3467 23 15.75V2.25C23 1.65326 22.7577 1.08097 22.3263 0.65901C21.895 0.237053 21.31 0 20.7 0H2.3ZM13.8 5.625C13.8 5.32663 13.9212 5.04048 14.1368 4.8295C14.3525 4.61853 14.645 4.5 14.95 4.5H18.4C18.705 4.5 18.9975 4.61853 19.2132 4.8295C19.4288 5.04048 19.55 5.32663 19.55 5.625C19.55 5.92337 19.4288 6.20952 19.2132 6.4205C18.9975 6.63147 18.705 6.75 18.4 6.75H14.95C14.645 6.75 14.3525 6.63147 14.1368 6.4205C13.9212 6.20952 13.8 5.92337 13.8 5.625ZM13.8 9C13.8 8.70163 13.9212 8.41548 14.1368 8.2045C14.3525 7.99353 14.645 7.875 14.95 7.875H18.4C18.705 7.875 18.9975 7.99353 19.2132 8.2045C19.4288 8.41548 19.55 8.70163 19.55 9C19.55 9.29837 19.4288 9.58452 19.2132 9.7955C18.9975 10.0065 18.705 10.125 18.4 10.125H14.95C14.645 10.125 14.3525 10.0065 14.1368 9.7955C13.9212 9.58452 13.8 9.29837 13.8 9ZM13.8 12.375C13.8 12.0766 13.9212 11.7905 14.1368 11.5795C14.3525 11.3685 14.645 11.25 14.95 11.25H18.4C18.705 11.25 18.9975 11.3685 19.2132 11.5795C19.4288 11.7905 19.55 12.0766 19.55 12.375C19.55 12.6734 19.4288 12.9595 19.2132 13.1705C18.9975 13.3815 18.705 13.5 18.4 13.5H14.95C14.645 13.5 14.3525 13.3815 14.1368 13.1705C13.9212 12.9595 13.8 12.6734 13.8 12.375ZM4.6 6.75C4.6 5.85489 4.96348 4.99645 5.61048 4.36351C6.25748 3.73058 7.135 3.375 8.05 3.375C8.965 3.375 9.84252 3.73058 10.4895 4.36351C11.1365 4.99645 11.5 5.85489 11.5 6.75C11.5 7.64511 11.1365 8.50355 10.4895 9.13649C9.84252 9.76942 8.965 10.125 8.05 10.125C7.135 10.125 6.25748 9.76942 5.61048 9.13649C4.96348 8.50355 4.6 7.64511 4.6 6.75ZM6.8333 11.25C6.10906 11.2498 5.40311 11.4725 4.81548 11.8866C4.22785 12.3007 3.78835 12.8853 3.55925 13.5574L3.50865 13.707L3.50405 13.7205C3.45575 13.8622 3.4408 13.9084 3.45575 13.9399C3.46265 13.9545 3.47875 13.9658 3.49945 13.9838C3.53625 14.0119 3.59145 14.0557 3.66735 14.1581C3.7739 14.3026 3.91402 14.4203 4.07617 14.5015C4.23832 14.5827 4.41786 14.625 4.6 14.625H11.5C11.6821 14.625 11.8617 14.5827 12.0238 14.5015C12.186 14.4203 12.3261 14.3026 12.4326 14.1581C12.4792 14.092 12.5358 14.0332 12.6005 13.9838C12.6224 13.9658 12.6362 13.9545 12.6442 13.9387C12.6603 13.9084 12.6443 13.8622 12.596 13.7205L12.5914 13.707L12.5407 13.5574C12.3117 12.8854 11.8724 12.301 11.285 11.8869C10.6976 11.4728 9.99189 11.25 9.26785 11.25H6.8333Z" fill="#287DC4"/>
</svg>
