<svg width="25" height="27" viewBox="0 0 25 27" fill="none" xmlns="http://www.w3.org/2000/svg">
<path d="M20.2038 13.4694C20.2038 17.7418 16.7541 21.2046 12.4997 21.2046C8.24523 21.2046 4.79553 17.7418 4.79553 13.4694C4.79553 9.19686 8.24523 5.7341 12.4997 5.7341C16.7541 5.7341 20.2038 9.19686 20.2038 13.4694Z" fill="#FFFFFF" stroke="#FFFFFF" stroke-width="0.231679"/>
<path d="M4.21875 18.3185L1.68875 19.704" stroke="#FFFFFF" stroke-width="1.85343" stroke-linecap="round"/>
<path d="M12.6133 23.1067V26" stroke="#FFFFFF" stroke-width="1.85343" stroke-linecap="round"/>
<path d="M7.44141 22.4751L6.75141 23.3988" stroke="#FFFFFF" stroke-width="1.85343" stroke-linecap="round"/>
<path d="M1 13.4695H2.15" stroke="#FFFFFF" stroke-width="1.85343" stroke-linecap="round"/>
<path d="M22.8516 13.4695H24.0016" stroke="#FFFFFF" stroke-width="1.85343" stroke-linecap="round"/>
<path d="M17.791 4.35657L18.255 3.30014" stroke="#FFFFFF" stroke-width="1.85343" stroke-linecap="round"/>
<path d="M7.21094 4.46375L6.80419 3.3838" stroke="#FFFFFF" stroke-width="1.85343" stroke-linecap="round"/>
<path d="M18.1953 23.5551L17.7886 22.4751" stroke="#FFFFFF" stroke-width="1.85343" stroke-linecap="round"/>
<path d="M12.5 1V3.89335" stroke="#FFFFFF" stroke-width="1.85343" stroke-linecap="round"/>
<path d="M1.46094 7.00378L4.22094 8.62019" stroke="#FFFFFF" stroke-width="1.85343" stroke-linecap="round"/>
<path d="M20.7812 8.85107L23.7713 7.00376" stroke="#FFFFFF" stroke-width="1.85343" stroke-linecap="round"/>
<path d="M20.7812 18.0876L23.5412 19.704" stroke="#FFFFFF" stroke-width="1.85343" stroke-linecap="round"/>
</svg>
