<svg width="18" height="16" viewBox="0 0 18 16" fill="none" xmlns="http://www.w3.org/2000/svg">
<path fill-rule="evenodd" clip-rule="evenodd" d="M1.24138 6.83045C5.90571 4.79828 9.01599 3.45855 10.5722 2.81125C15.0156 0.963105 15.9389 0.642062 16.5407 0.631461C16.673 0.629129 16.969 0.661931 17.1607 0.817482C17.3226 0.948826 17.3671 1.12625 17.3884 1.25078C17.4097 1.37531 17.4362 1.65899 17.4152 1.88065C17.1744 4.41062 16.1325 10.5502 15.6024 13.3838C15.3781 14.5828 14.9365 14.9848 14.509 15.0242C13.5798 15.1097 12.8743 14.4101 11.9743 13.8202C10.5661 12.8971 9.77059 12.3225 8.40368 11.4217C6.82398 10.3807 7.84803 9.80858 8.7483 8.87353C8.9839 8.62882 13.0778 4.90515 13.157 4.56735C13.1669 4.52511 13.1761 4.36763 13.0825 4.28448C12.989 4.20132 12.8509 4.22976 12.7513 4.25237C12.61 4.28443 10.3604 5.77135 6.00238 8.71314C5.36383 9.15161 4.78545 9.36525 4.26724 9.35406C3.69596 9.34171 2.59704 9.03105 1.78011 8.76549C0.778109 8.43978 -0.0182615 8.26758 0.0510845 7.71442C0.0872042 7.4263 0.483971 7.13164 1.24138 6.83045Z" fill="#E1E1E1"/>
</svg>
