<svg width="42" height="42" viewBox="0 0 42 42" fill="none" xmlns="http://www.w3.org/2000/svg">
<path d="M21 42C32.598 42 42 32.598 42 21C42 9.40202 32.598 0 21 0C9.40202 0 0 9.40202 0 21C0 32.598 9.40202 42 21 42Z" fill="#11AADC"/>
<path fill-rule="evenodd" clip-rule="evenodd" d="M9.50432 19.7773C15.6262 17.1101 19.7085 15.3517 21.7511 14.5021C27.583 12.0764 28.7948 11.6551 29.5846 11.6411C29.7584 11.6381 30.1468 11.6811 30.3984 11.8853C30.6109 12.0577 30.6693 12.2906 30.6973 12.454C30.7252 12.6174 30.7601 12.9898 30.7324 13.2807C30.4164 16.6013 29.0489 24.6595 28.3532 28.3786C28.0588 29.9523 27.4792 30.48 26.918 30.5316C25.6985 30.6438 24.7725 29.7257 23.5913 28.9514C21.7431 27.7398 20.6989 26.9856 18.9048 25.8034C16.8315 24.4371 18.1755 23.6861 19.3571 22.4589C19.6664 22.1377 25.0396 17.2504 25.1436 16.807C25.1566 16.7516 25.1686 16.5449 25.0458 16.4357C24.9231 16.3266 24.7418 16.3639 24.6111 16.3936C24.4257 16.4357 21.473 18.3872 15.7531 22.2483C14.915 22.8238 14.1559 23.1042 13.4758 23.0895C12.726 23.0733 11.2836 22.6656 10.2114 22.3171C8.89627 21.8896 7.85103 21.6635 7.94205 20.9375C7.98946 20.5594 8.51021 20.1726 9.50432 19.7773Z" fill="white"/>
</svg>
