<svg width="18" height="21" viewBox="0 0 18 21" fill="none" xmlns="http://www.w3.org/2000/svg">
<path d="M7.45354 8.2001V11.8001C4.25317 11.8001 3.45391 13.4001 3.45391 14.6001C3.45391 15.8001 3.85391 17.8001 6.65391 17.8001C8.89391 17.8001 9.79922 16.2001 9.85391 15.0001V0.600098H12.2539C12.2539 3.1601 15.4539 4.6001 17.0539 5.0001V9.0001C16.0939 9.0001 13.9872 7.93343 13.0539 7.4001C13.0539 8.46676 13.1195 11.5607 13.0539 15.4001C12.9992 18.6001 9.39922 21.0001 7.39922 21.0001C5.39922 21.0001 0.89354 20.8401 0.25354 15.4001C-0.38646 9.9601 4.78687 8.33343 7.45354 8.2001Z" fill="#D9D9D9"/>
</svg>
