<svg width="18" height="18" viewBox="0 0 18 18" fill="none" xmlns="http://www.w3.org/2000/svg">
<path fill-rule="evenodd" clip-rule="evenodd" d="M1.29104 14.8702V7.12402H16.7052V14.8702C16.7052 15.8639 15.8601 16.709 14.8664 16.709H3.12978C2.13929 16.709 1.29104 15.8646 1.29104 14.8702ZM12.921 0.467749L12.936 1.68605H12.9886H14.9447C16.535 1.68605 17.9962 3.07792 17.9962 4.9723V14.6355C17.9962 15.3587 17.8154 16.0881 17.4324 16.6146C17.3646 16.7078 17.3164 16.7731 17.2428 16.8554C16.8688 17.2738 16.6107 17.4944 16.0516 17.7377C15.6487 17.913 15.1946 18 14.6317 18H3.36451C2.43579 18 1.5541 17.6946 0.929755 17.0702C0.307188 16.4477 0 15.562 0 14.6355V5.01144C0 3.98875 0.352383 3.18565 0.870129 2.67354C1.43144 2.11831 2.1749 1.68605 3.05154 1.68605H5.00765H5.05762L5.04276 0.481676C5.03954 0.221029 5.24961 0.00584343 5.51025 0.00276829L5.74226 3.30549e-05C6.00272 -0.00302729 6.21767 0.206806 6.22089 0.467261L6.23593 1.68605H6.29867H11.6975H11.7577L11.7428 0.482164C11.7396 0.221517 11.9497 0.00633106 12.2103 0.00325593L12.4423 0.000521052C12.7028 -0.0025393 12.9177 0.207294 12.921 0.467749ZM12.9519 2.97707L12.9664 4.15102C12.9696 4.41167 12.7596 4.62684 12.4989 4.62991L12.2669 4.63265C12.0065 4.63572 11.7915 4.42587 11.7883 4.16542L11.7736 2.97707H11.6975H6.29867H6.25186L6.26634 4.15053C6.26955 4.41118 6.05949 4.62635 5.79884 4.62942L5.56685 4.63216C5.30638 4.63523 5.09143 4.42539 5.08821 4.16493L5.07356 2.97707H5.00765H3.01242C2.17227 2.97707 1.27625 3.80924 1.27625 4.81582L1.29104 5.87212H16.7052L16.72 4.81582C16.72 3.8069 15.8225 2.97707 14.9838 2.97707H12.9886H12.9519Z" fill="#2786C9"/>
<path fill-rule="evenodd" clip-rule="evenodd" d="M17 7H1V17H17V7ZM3.6 8C3.26863 8 3 8.26863 3 8.6V10.4C3 10.7314 3.26863 11 3.6 11H5.4C5.73137 11 6 10.7314 6 10.4V8.6C6 8.26863 5.73137 8 5.4 8H3.6Z" fill="#2786C9"/>
</svg>
