<svg width="12" height="16" viewBox="0 0 12 16" fill="none" xmlns="http://www.w3.org/2000/svg">
<path fill-rule="evenodd" clip-rule="evenodd" d="M12 5.99274C12 2.68304 9.31371 0 6 0C2.68629 0 0 2.68304 0 5.99274C0 6.93362 0.217255 7.8238 0.604206 8.61607L0.604881 8.61742C1.2309 9.89833 2.95704 12.107 4.39894 13.952C5.00004 14.7212 5.55173 15.4271 5.95374 15.9763C5.96508 15.9917 5.98122 16 6 16C6.01877 16 6.03493 15.9917 6.04626 15.9763C6.44807 15.4274 6.99967 14.7216 7.60073 13.9525C9.04282 12.1072 10.7696 9.89774 11.3951 8.61741L11.3958 8.61607C11.7827 7.82372 12 6.93362 12 5.99274ZM9 6C9 7.65686 7.65685 9 6 9C4.34315 9 3 7.65686 3 6C3 4.34315 4.34315 3 6 3C7.65685 3 9 4.34315 9 6Z" fill="#2786C9"/>
</svg>
