<svg width="15" height="19" viewBox="0 0 15 19" fill="none" xmlns="http://www.w3.org/2000/svg">
<path d="M14.2227 14.9173C14.5569 14.9173 14.8279 14.6463 14.8279 14.312C14.8279 13.9777 14.5569 13.7068 14.2227 13.7068L14.2227 14.9173ZM0.572091 13.884C0.335722 14.1204 0.335722 14.5036 0.572091 14.74L4.42394 18.5918C4.6603 18.8282 5.04353 18.8282 5.2799 18.5918C5.51627 18.3555 5.51627 17.9722 5.2799 17.7359L1.85604 14.312L5.2799 10.8881C5.51627 10.6518 5.51627 10.2685 5.2799 10.0322C5.04353 9.79581 4.66031 9.79581 4.42394 10.0322L0.572091 13.884ZM14.2227 13.7068L1.00007 13.7067L1.00007 14.9173L14.2227 14.9173L14.2227 13.7068Z" fill="#D6D6D6"/>
<path d="M1 5.60526C0.665725 5.60526 0.394741 5.33428 0.394741 5C0.394741 4.66572 0.665724 4.39474 1 4.39474L1 5.60526ZM14.6506 4.57201C14.8869 4.80838 14.8869 5.19161 14.6506 5.42798L10.7987 9.27983C10.5624 9.51619 10.1791 9.51619 9.94276 9.27983C9.70639 9.04346 9.70639 8.66023 9.94276 8.42386L13.3666 5L9.94275 1.57614C9.70639 1.33977 9.70639 0.956538 9.94275 0.72017C10.1791 0.483801 10.5624 0.483801 10.7987 0.720169L14.6506 4.57201ZM1 4.39474L14.2226 4.39474L14.2226 5.60526L1 5.60526L1 4.39474Z" fill="#D6D6D6"/>
</svg>
