<svg width="20" height="18" viewBox="0 0 20 18" fill="none" xmlns="http://www.w3.org/2000/svg">
<path d="M10 18L8.55 16.7248C6.86667 15.2371 5.475 13.9537 4.375 12.8747C3.275 11.7956 2.4 10.8268 1.75 9.96817C1.1 9.10954 0.646 8.32087 0.388 7.60218C0.13 6.88349 0.000666667 6.14779 0 5.39509C0 3.85831 0.525 2.57493 1.575 1.54496C2.625 0.514986 3.93333 0 5.5 0C6.36667 0 7.19167 0.179836 7.975 0.539509C8.75833 0.899182 9.43333 1.40599 10 2.05995C10.5667 1.40599 11.2417 0.899182 12.025 0.539509C12.8083 0.179836 13.6333 0 14.5 0C16.0667 0 17.375 0.514986 18.425 1.54496C19.475 2.57493 20 3.85831 20 5.39509C20 6.14714 19.871 6.88283 19.613 7.60218C19.355 8.32153 18.9007 9.11019 18.25 9.96817C17.5993 10.8262 16.7243 11.795 15.625 12.8747C14.5257 13.9543 13.134 15.2377 11.45 16.7248L10 18Z" fill="#287DC4"/>
</svg>
