<svg width="23" height="23" viewBox="0 0 23 23" fill="none" xmlns="http://www.w3.org/2000/svg">
<path d="M18.5229 11.4745C18.5229 15.0444 15.3871 17.9537 11.4991 17.9537C7.61108 17.9537 4.47521 15.0444 4.47521 11.4745C4.47521 7.90457 7.61108 4.99523 11.4991 4.99523C15.3871 4.99523 18.5229 7.90457 18.5229 11.4745Z" fill="#287DC4" stroke="#287DC4" stroke-width="0.231679"/>
<path d="M3.93945 15.5479L1.62955 16.7117" stroke="#287DC4" stroke-width="1.85343" stroke-linecap="round"/>
<path d="M11.6016 19.5703V22.0008" stroke="#287DC4" stroke-width="1.85343" stroke-linecap="round"/>
<path d="M6.88086 19.0396L6.25089 19.8154" stroke="#287DC4" stroke-width="1.85343" stroke-linecap="round"/>
<path d="M1 11.4746H2.04995" stroke="#287DC4" stroke-width="1.85343" stroke-linecap="round"/>
<path d="M20.9512 11.4746H22.0011" stroke="#287DC4" stroke-width="1.85343" stroke-linecap="round"/>
<path d="M16.332 3.81982L16.7557 2.9324" stroke="#287DC4" stroke-width="1.85343" stroke-linecap="round"/>
<path d="M6.67188 3.90967L6.30052 3.00249" stroke="#287DC4" stroke-width="1.85343" stroke-linecap="round"/>
<path d="M16.7012 19.9468L16.3298 19.0396" stroke="#287DC4" stroke-width="1.85343" stroke-linecap="round"/>
<path d="M11.5 1V3.43047" stroke="#287DC4" stroke-width="1.85343" stroke-linecap="round"/>
<path d="M1.42188 6.04346L3.94177 7.40127" stroke="#287DC4" stroke-width="1.85343" stroke-linecap="round"/>
<path d="M19.0605 7.59521L21.7904 6.04343" stroke="#287DC4" stroke-width="1.85343" stroke-linecap="round"/>
<path d="M19.0605 15.354L21.5804 16.7118" stroke="#287DC4" stroke-width="1.85343" stroke-linecap="round"/>
</svg>
